<svg xmlns="http://www.w3.org/2000/svg" width="250" height="250" viewBox="0 0 250 250"><g transform="translate(-252 1367)"><rect width="250" height="250" transform="translate(252 -1367)" fill="none"/><g transform="translate(-796.431 -1679.379)"><path d="M1213.926,427.878l-105.183,49.049-31.312-16.71V402.094l31.312-45.912,57.934-27.016,7.875,4.2v10.5l-7.875,11.547-47.059,21.944-15.938,23.367V437.1l15.938,8.5,94.307-43.978,7.874,4.2v10.5Z" transform="translate(0 27.277)" fill="#f75237"/><path d="M1206.866,455.287l-55.312,25.793-7.875-4.2v-10.5l7.875-11.547,44.436-20.721,15.936-23.367V374.367l-15.936-8.5-91.685,42.751-7.875-4.2v-10.5l7.875-11.547,102.561-47.823,31.309,16.71v58.123Z" transform="translate(30.873 36.012)" fill="#f75237"/><path d="M1186.428,338.628l-55.123,25.7-7.875-4.2v-10.5l7.875-11.547,55.123-25.7,7.875,4.2v10.5Z" transform="translate(74.745)" fill="#f75237"/><path d="M1143.054,413.612l-57.748,26.926-7.875-4.2v-10.5l7.875-11.547,57.748-26.926,7.875,4.2v10.5Z" transform="translate(0 121.841)" fill="#f75237"/></g></g></svg>